<?xml version="1.0" encoding="UTF-8" standalone="no"?>
<!-- Created with Inkscape (http://www.inkscape.org/) -->

<svg
   xmlns:dc="http://purl.org/dc/elements/1.1/"
   xmlns:cc="http://creativecommons.org/ns#"
   xmlns:rdf="http://www.w3.org/1999/02/22-rdf-syntax-ns#"
   xmlns:svg="http://www.w3.org/2000/svg"
   xmlns="http://www.w3.org/2000/svg"
   xmlns:sodipodi="http://sodipodi.sourceforge.net/DTD/sodipodi-0.dtd"
   xmlns:inkscape="http://www.inkscape.org/namespaces/inkscape"
   width="2400"
   height="2400"
   viewBox="0 0 634.99998 635.00002"
   version="1.1"
   id="svg8"
   inkscape:version="0.92.3 (2405546, 2018-03-11)"
   sodipodi:docname="codeconquestmap.svg">
  <defs
     id="defs2" />
  <sodipodi:namedview
     id="base"
     pagecolor="#ffffff"
     bordercolor="#666666"
     borderopacity="1.0"
     inkscape:pageopacity="0.0"
     inkscape:pageshadow="2"
     inkscape:zoom="0.24748737"
     inkscape:cx="1009.8457"
     inkscape:cy="1172.8222"
     inkscape:document-units="mm"
     inkscape:current-layer="layer1"
     showgrid="true"
     units="px"
     inkscape:lockguides="false"
     showguides="false"
     inkscape:window-width="1366"
     inkscape:window-height="705"
     inkscape:window-x="1592"
     inkscape:window-y="-8"
     inkscape:window-maximized="1">
    <inkscape:grid
       type="xygrid"
       id="grid815"
       dotted="false" />
  </sodipodi:namedview>
  <metadata
     id="metadata5">
    <rdf:RDF>
      <cc:Work
         rdf:about="">
        <dc:format>image/svg+xml</dc:format>
        <dc:type
           rdf:resource="http://purl.org/dc/dcmitype/StillImage" />
        <dc:title></dc:title>
      </cc:Work>
    </rdf:RDF>
  </metadata>
  <g
     inkscape:label="Layer 1"
     inkscape:groupmode="layer"
     id="layer1"
     transform="translate(0,338.00002)">
    <rect
       style="fill:#ffffff;fill-opacity:1;stroke:#000000;stroke-width:2.64583325;stroke-miterlimit:4;stroke-dasharray:none;stroke-opacity:1"
       id="rect866"
       width="42.333332"
       height="42.333332"
       x="158.75002"
       y="-41.666691" />
    <rect
       style="fill:#ffffff;fill-opacity:1;stroke:#000000;stroke-width:2.64583325;stroke-miterlimit:4;stroke-dasharray:none;stroke-opacity:1"
       id="rect868"
       width="42.333332"
       height="42.333332"
       x="296.33334"
       y="-179.25" />
    <rect
       style="fill:#ffffff;fill-opacity:1;stroke:#000000;stroke-width:2.64583325;stroke-miterlimit:4;stroke-dasharray:none;stroke-opacity:1"
       id="rect873"
       width="42.333332"
       height="42.333332"
       x="433.91666"
       y="-41.666691" />
    <rect
       style="fill:#ffffff;fill-opacity:1;stroke:#000000;stroke-width:2.64583325;stroke-miterlimit:4;stroke-dasharray:none;stroke-opacity:1"
       id="rect877"
       width="232.83333"
       height="21.166666"
       x="201.08333"
       y="-31.083347" />
    <rect
       style="fill:#ffffff;fill-opacity:1;stroke:#000000;stroke-width:2.64583325;stroke-miterlimit:4;stroke-dasharray:none;stroke-opacity:1"
       id="rect879"
       width="21.166666"
       height="232.83333"
       x="306.91669"
       y="-136.91669" />
    <rect
       style="fill:#ffffff;fill-opacity:1;stroke:#000000;stroke-width:2.64599991;stroke-miterlimit:4;stroke-dasharray:none;stroke-opacity:1"
       id="rect881"
       width="42.333332"
       height="42.333332"
       x="296.33334"
       y="95.916641" />
    <path
       style="fill:none;stroke:#000000;stroke-width:2.64583325;stroke-linecap:butt;stroke-linejoin:miter;stroke-miterlimit:4;stroke-dasharray:none;stroke-opacity:1"
       d="M 306.91666,95.91665 201.08333,-9.9166933"
       id="path886"
       inkscape:connector-curvature="0" />
    <path
       style="fill:none;stroke:#000000;stroke-width:2.64583325;stroke-linecap:butt;stroke-linejoin:miter;stroke-miterlimit:4;stroke-dasharray:none;stroke-opacity:1"
       d="M 285.75,106.49998 179.91667,0.66664667"
       id="path888"
       inkscape:connector-curvature="0" />
    <path
       style="fill:none;stroke:#000000;stroke-width:2.64583325;stroke-linecap:butt;stroke-linejoin:miter;stroke-miterlimit:4;stroke-dasharray:none;stroke-opacity:1"
       d="M 328.08333,95.91665 433.91666,-9.9166933"
       id="path890"
       inkscape:connector-curvature="0" />
    <path
       style="fill:none;stroke:#000000;stroke-width:2.64583325;stroke-linecap:butt;stroke-linejoin:miter;stroke-miterlimit:4;stroke-dasharray:none;stroke-opacity:1"
       d="M 338.66667,117.08332 444.50001,11.249987"
       id="path892"
       inkscape:connector-curvature="0" />
    <path
       style="fill:none;stroke:#000000;stroke-width:2.64583325;stroke-linecap:butt;stroke-linejoin:miter;stroke-miterlimit:4;stroke-dasharray:none;stroke-opacity:1"
       d="M 433.91666,-31.083353 328.08333,-136.91668"
       id="path894"
       inkscape:connector-curvature="0" />
    <path
       style="fill:none;stroke:#000000;stroke-width:2.64583325;stroke-linecap:butt;stroke-linejoin:miter;stroke-miterlimit:4;stroke-dasharray:none;stroke-opacity:1"
       d="M 455.08333,-41.666683 349.24999,-147.50002"
       id="path896"
       inkscape:connector-curvature="0" />
    <path
       style="fill:none;stroke:#000000;stroke-width:2.64583325;stroke-linecap:butt;stroke-linejoin:miter;stroke-miterlimit:4;stroke-dasharray:none;stroke-opacity:1"
       d="M 285.75,-147.50001 179.91667,-41.666683"
       id="path898"
       inkscape:connector-curvature="0" />
    <path
       style="fill:none;stroke:#000000;stroke-width:2.64583325;stroke-linecap:butt;stroke-linejoin:miter;stroke-miterlimit:4;stroke-dasharray:none;stroke-opacity:1"
       d="M 306.91666,-136.91668 201.08333,-31.083353"
       id="path900"
       inkscape:connector-curvature="0" />
    <path
       style="fill:none;stroke:#000000;stroke-width:2.64583325;stroke-linecap:butt;stroke-linejoin:miter;stroke-miterlimit:4;stroke-dasharray:none;stroke-opacity:1"
       d="m 285.75,-147.50002 10.58333,-10.58333"
       id="path920"
       inkscape:connector-curvature="0" />
    <path
       style="fill:none;stroke:#000000;stroke-width:2.64583325;stroke-linecap:butt;stroke-linejoin:miter;stroke-miterlimit:4;stroke-dasharray:none;stroke-opacity:1"
       d="M 338.66666,-158.08335 349.25,-147.50002"
       id="path922"
       inkscape:connector-curvature="0" />
    <path
       style="fill:none;stroke:#000000;stroke-width:2.64583325;stroke-linecap:butt;stroke-linejoin:miter;stroke-miterlimit:4;stroke-dasharray:none;stroke-opacity:1"
       d="M 455.08333,0.66664667 444.5,11.249977"
       id="path924"
       inkscape:connector-curvature="0" />
    <path
       style="fill:none;stroke:#000000;stroke-width:2.64583325;stroke-linecap:butt;stroke-linejoin:miter;stroke-miterlimit:4;stroke-dasharray:none;stroke-opacity:1"
       d="M 296.33333,117.08331 285.75,106.49998"
       id="path926"
       inkscape:connector-curvature="0" />
    <path
       style="fill:none;stroke:#000000;stroke-width:2.64583325;stroke-linecap:butt;stroke-linejoin:miter;stroke-miterlimit:4;stroke-dasharray:none;stroke-opacity:1"
       d="m 306.91666,-31.083353 h 21.16667"
       id="path928"
       inkscape:connector-curvature="0" />
    <path
       style="fill:none;stroke:#000000;stroke-width:2.64583325;stroke-linecap:butt;stroke-linejoin:miter;stroke-miterlimit:4;stroke-dasharray:none;stroke-opacity:1"
       d="M 328.08333,-9.9166933 H 306.91666"
       id="path930"
       inkscape:connector-curvature="0" />
    <path
       style="fill:none;stroke:#000000;stroke-width:2.64583325;stroke-linecap:butt;stroke-linejoin:miter;stroke-miterlimit:4;stroke-dasharray:none;stroke-opacity:1"
       d="M 254,-31.083353 V -9.9166933"
       id="path932"
       inkscape:connector-curvature="0" />
    <path
       style="fill:none;stroke:#000000;stroke-width:2.64583325;stroke-linecap:butt;stroke-linejoin:miter;stroke-miterlimit:4;stroke-dasharray:none;stroke-opacity:1"
       d="M 381,-31.083353 V -9.9166933"
       id="path934"
       inkscape:connector-curvature="0" />
    <path
       style="fill:none;stroke:#000000;stroke-width:2.64583325;stroke-linecap:butt;stroke-linejoin:miter;stroke-miterlimit:4;stroke-dasharray:none;stroke-opacity:1"
       d="m 391.58333,-105.16669 v 31.749997"
       id="path936"
       inkscape:connector-curvature="0" />
    <path
       style="fill:none;stroke:#000000;stroke-width:2.64583325;stroke-linecap:butt;stroke-linejoin:miter;stroke-miterlimit:4;stroke-dasharray:none;stroke-opacity:1"
       d="m 391.58333,32.41665 v 31.75"
       id="path938"
       inkscape:connector-curvature="0" />
    <path
       style="fill:none;stroke:#000000;stroke-width:2.64583325;stroke-linecap:butt;stroke-linejoin:miter;stroke-miterlimit:4;stroke-dasharray:none;stroke-opacity:1"
       d="m 243.41667,64.16665 v -31.75"
       id="path940"
       inkscape:connector-curvature="0" />
    <path
       style="fill:none;stroke:#000000;stroke-width:2.64583325;stroke-linecap:butt;stroke-linejoin:miter;stroke-miterlimit:4;stroke-dasharray:none;stroke-opacity:1"
       d="M 243.41667,-73.416693 V -105.16669"
       id="path942"
       inkscape:connector-curvature="0" />
    <path
       style="fill:none;stroke:#000000;stroke-width:2.64583325;stroke-linecap:butt;stroke-linejoin:miter;stroke-miterlimit:4;stroke-dasharray:none;stroke-opacity:1"
       d="m 306.91666,-84.000023 h 21.16667"
       id="path944"
       inkscape:connector-curvature="0" />
    <path
       style="fill:none;stroke:#000000;stroke-width:2.64583325;stroke-linecap:butt;stroke-linejoin:miter;stroke-miterlimit:4;stroke-dasharray:none;stroke-opacity:1"
       d="M 328.08333,42.99998 H 306.91666"
       id="path946"
       inkscape:connector-curvature="0" />
    <circle
       style="fill:#ffffff;fill-opacity:0.00502513;stroke:#000000;stroke-width:2.64583325;stroke-miterlimit:4;stroke-dasharray:none;stroke-opacity:1"
       id="path952"
       cx="317.5"
       cy="-20.500025"
       r="317.5" />
    <circle
       style="fill:#ffffff;fill-opacity:0.00502511;stroke:#000000;stroke-width:2.64583325;stroke-miterlimit:4;stroke-dasharray:none;stroke-opacity:1"
       id="path954"
       cx="317.5"
       cy="-20.500025"
       r="285.75" />
    <rect
       style="fill:#ffffff;fill-opacity:0.00502511;stroke:#000000;stroke-width:2.64583325;stroke-miterlimit:4;stroke-dasharray:none;stroke-opacity:1"
       id="rect958"
       width="21.166666"
       height="137.58333"
       x="158.75"
       y="-179.25002" />
    <rect
       style="fill:#ffffff;fill-opacity:0.00502511;stroke:#000000;stroke-width:2.64583325;stroke-miterlimit:4;stroke-dasharray:none;stroke-opacity:1"
       id="rect960"
       width="137.58333"
       height="21.166666"
       x="158.75"
       y="-179.25002" />
    <path
       style="fill:none;stroke:#000000;stroke-width:2.64583333;stroke-linecap:butt;stroke-linejoin:miter;stroke-opacity:1;stroke-miterlimit:4;stroke-dasharray:none"
       d="M 179.91666,-179.25002 127,-232.16669"
       id="path962"
       inkscape:connector-curvature="0" />
    <path
       style="fill:none;stroke:#000000;stroke-width:2.64583333;stroke-linecap:butt;stroke-linejoin:miter;stroke-opacity:1;stroke-miterlimit:4;stroke-dasharray:none"
       d="m 158.75,-158.08336 -52.91667,-52.91666"
       id="path964"
       inkscape:connector-curvature="0" />
    <rect
       style="fill:#ffffff;fill-opacity:0.00502511;stroke:#000000;stroke-width:2.64583325;stroke-miterlimit:4;stroke-dasharray:none;stroke-opacity:1"
       id="rect966"
       width="137.58333"
       height="21.166666"
       x="338.66666"
       y="-179.25002" />
    <rect
       style="fill:#ffffff;fill-opacity:0.00502511;stroke:#000000;stroke-width:2.64583325;stroke-miterlimit:4;stroke-dasharray:none;stroke-opacity:1"
       id="rect968"
       width="21.166666"
       height="137.58333"
       x="455.08331"
       y="-179.25002" />
    <rect
       style="fill:#ffffff;fill-opacity:0.00502511;stroke:#000000;stroke-width:2.64583325;stroke-miterlimit:4;stroke-dasharray:none;stroke-opacity:1"
       id="rect970"
       width="21.166666"
       height="137.58333"
       x="455.08331"
       y="0.66664243" />
    <rect
       style="fill:#ffffff;fill-opacity:0.00502511;stroke:#000000;stroke-width:2.64583325;stroke-miterlimit:4;stroke-dasharray:none;stroke-opacity:1"
       id="rect972"
       width="137.58333"
       height="21.166666"
       x="338.66666"
       y="117.08331" />
    <rect
       style="fill:#ffffff;fill-opacity:0.00502511;stroke:#000000;stroke-width:2.64583325;stroke-miterlimit:4;stroke-dasharray:none;stroke-opacity:1"
       id="rect974"
       width="137.58333"
       height="21.166666"
       x="158.75"
       y="117.08331" />
    <rect
       style="fill:#ffffff;fill-opacity:0.00502511;stroke:#000000;stroke-width:2.64583325;stroke-miterlimit:4;stroke-dasharray:none;stroke-opacity:1"
       id="rect976"
       width="21.166666"
       height="137.58333"
       x="158.75"
       y="0.66664243" />
    <path
       style="fill:none;stroke:#000000;stroke-width:2.64583333;stroke-linecap:butt;stroke-linejoin:miter;stroke-opacity:1;stroke-miterlimit:4;stroke-dasharray:none"
       d="m 158.75,117.08331 -52.91667,52.91666"
       id="path978"
       inkscape:connector-curvature="0" />
    <path
       style="fill:none;stroke:#000000;stroke-width:2.64583333;stroke-linecap:butt;stroke-linejoin:miter;stroke-opacity:1;stroke-miterlimit:4;stroke-dasharray:none"
       d="M 179.91666,138.24997 127,191.16664"
       id="path980"
       inkscape:connector-curvature="0" />
    <path
       style="fill:none;stroke:#000000;stroke-width:2.64583333;stroke-linecap:butt;stroke-linejoin:miter;stroke-opacity:1;stroke-miterlimit:4;stroke-dasharray:none"
       d="m 455.08333,-179.25002 52.91666,-52.91667"
       id="path982"
       inkscape:connector-curvature="0" />
    <path
       style="fill:none;stroke:#000000;stroke-width:2.64583333;stroke-linecap:butt;stroke-linejoin:miter;stroke-opacity:1;stroke-miterlimit:4;stroke-dasharray:none"
       d="m 476.24999,-158.08336 52.91667,-52.91666"
       id="path984"
       inkscape:connector-curvature="0" />
    <path
       style="fill:none;stroke:#000000;stroke-width:2.64583333;stroke-linecap:butt;stroke-linejoin:miter;stroke-opacity:1;stroke-miterlimit:4;stroke-dasharray:none"
       d="m 476.24999,117.08331 52.91667,52.91666"
       id="path986"
       inkscape:connector-curvature="0" />
    <path
       style="fill:none;stroke:#000000;stroke-width:2.64583333;stroke-linecap:butt;stroke-linejoin:miter;stroke-opacity:1;stroke-miterlimit:4;stroke-dasharray:none"
       d="m 455.08333,138.24997 52.91666,52.91667"
       id="path988"
       inkscape:connector-curvature="0" />
    <path
       style="fill:none;stroke:#000000;stroke-width:2.64583333;stroke-linecap:butt;stroke-linejoin:miter;stroke-opacity:1;stroke-miterlimit:4;stroke-dasharray:none"
       d="m 317.5,-306.25002 v -31.75"
       id="path992"
       inkscape:connector-curvature="0" />
    <path
       style="fill:none;stroke:#000000;stroke-width:2.64583333;stroke-linecap:butt;stroke-linejoin:miter;stroke-opacity:1;stroke-miterlimit:4;stroke-dasharray:none"
       d="m 603.24999,-20.500024 h 31.75"
       id="path994"
       inkscape:connector-curvature="0" />
    <path
       style="fill:none;stroke:#000000;stroke-width:2.64583333;stroke-linecap:butt;stroke-linejoin:miter;stroke-opacity:1;stroke-miterlimit:4;stroke-dasharray:none"
       d="M 31.75,-20.500024 H 0"
       id="path996"
       inkscape:connector-curvature="0" />
    <path
       style="fill:none;stroke:#000000;stroke-width:2.64583333;stroke-linecap:butt;stroke-linejoin:miter;stroke-opacity:1;stroke-miterlimit:4;stroke-dasharray:none"
       d="m 317.5,265.24997 v 31.75"
       id="path998"
       inkscape:connector-curvature="0" />
    <path
       style="fill:#000000;fill-opacity:1;stroke:#000000;stroke-width:40.40610123;stroke-miterlimit:4;stroke-dasharray:none;stroke-opacity:0"
       d="M 372.79856,1882.8303 C 240.39988,1723.7481 158.4554,1529.8724 133.75811,1317.275 c -7.88981,-67.9165 -5.71753,-211.8313 4.12258,-273.1228 14.62211,-91.07734 41.29509,-185.58812 74.89386,-265.37255 33.6197,-79.83414 93.13205,-178.51961 151.85246,-251.80709 l 31.7521,-39.629 98.24831,98.18693 98.24831,98.18692 v 517.26059 517.2606 l -95.99542,95.9329 c -52.79748,52.7632 -97.2075,95.933 -98.68893,95.933 -1.48143,0 -12.9082,-12.2734 -25.39282,-27.2742 z"
       id="path1024"
       inkscape:connector-curvature="0"
       transform="matrix(0.26458333,0,0,0.26458333,0,-338.00002)" />
    <path
       style="fill:#000000;fill-opacity:1;stroke:#000000;stroke-width:40.40610123;stroke-miterlimit:4;stroke-dasharray:none;stroke-opacity:0"
       d="m 585.54068,494.61722 -98.18692,-98.24831 39.629,-31.7521 C 678.02249,243.59867 848.61407,169.09743 1047.4444,137.31937 c 69.7929,-11.15466 248.3214,-9.88246 319.2082,2.2747 164.7538,28.25547 304.8152,83.99177 436.3859,173.65628 44.1163,30.065 100.2414,73.83528 105.4194,82.21359 1.5233,2.46466 -39.3242,46.41838 -93.7549,100.88455 l -96.4542,96.51704 H 1200.9882 683.72761 Z"
       id="path1026"
       inkscape:connector-curvature="0"
       transform="matrix(0.26458333,0,0,0.26458333,0,-338.00002)" />
    <path
       style="fill:#000000;fill-opacity:1;stroke:#000000;stroke-width:40.40610123;stroke-miterlimit:4;stroke-dasharray:none;stroke-opacity:0"
       d="m 1903.0127,1812.0894 -97.9539,-98.0152 V 1198.8958 683.71741 l 98.4084,-98.34695 98.4085,-98.34695 22.6905,26.74632 c 197.7168,233.05742 287.0775,565.72237 232.898,867.01467 -26.9088,149.6404 -85.712,298.5193 -162.7849,412.1423 -24.5221,36.1511 -88.0096,117.1777 -91.8133,117.1777 -1.0447,0 -45.9787,-44.1069 -99.8533,-98.0151 z"
       id="path1028"
       inkscape:connector-curvature="0"
       transform="matrix(0.26458333,0,0,0.26458333,0,-338.00002)" />
    <path
       style="fill:#000000;fill-opacity:1;stroke:#000000;stroke-width:40.40610123;stroke-miterlimit:4;stroke-dasharray:none;stroke-opacity:0"
       d="M 1109.0367,2269.3729 C 893.64591,2251.5853 681.41438,2164.0607 512.61945,2023.4095 l -25.70805,-21.4217 98.40811,-98.4696 98.4081,-98.4696 h 515.23969 515.2396 l 98.964,99.038 98.9641,99.0379 -12.1219,10.2271 c -224.4328,189.3509 -503.7049,279.745 -790.9764,256.0213 z"
       id="path1030"
       inkscape:connector-curvature="0"
       transform="matrix(0.26458333,0,0,0.26458333,0,-338.00002)" />
    <path
       style="fill:#000000;fill-opacity:1;stroke:#000000;stroke-width:40.40610123;stroke-miterlimit:4;stroke-dasharray:none;stroke-opacity:0"
       d="M 964.61187,1435.3328 776.75608,1247.4444 h 188.88223 188.88219 v 187.8884 c 0,103.3386 -0.4619,187.8883 -1.0264,187.8883 -0.5645,0 -85.5615,-84.5497 -188.88223,-187.8883 z"
       id="path1032"
       inkscape:connector-curvature="0"
       transform="matrix(0.26458333,0,0,0.26458333,0,-338.00002)" />
    <path
       style="fill:#000000;fill-opacity:1;stroke:#000000;stroke-width:40.40610123;stroke-miterlimit:4;stroke-dasharray:none;stroke-opacity:0"
       d="m 1247.4546,1433.3125 v -185.8681 h 186.8617 186.8618 l -185.8351,185.8681 c -102.2094,102.2274 -186.2972,185.868 -186.8618,185.868 -0.5646,0 -1.0266,-83.6406 -1.0266,-185.868 z"
       id="path1034"
       inkscape:connector-curvature="0"
       transform="matrix(0.26458333,0,0,0.26458333,0,-338.00002)" />
    <path
       style="fill:#000000;fill-opacity:1;stroke:#000000;stroke-width:40.40610123;stroke-miterlimit:4;stroke-dasharray:none;stroke-opacity:0"
       d="M 1247.4546,965.62811 V 776.74588 l 187.8884,187.85579 c 103.3386,103.32073 187.8883,188.31773 187.8883,188.88223 0,0.5645 -84.5497,1.0264 -187.8883,1.0264 h -187.8884 z"
       id="path1036"
       inkscape:connector-curvature="0"
       transform="matrix(0.26458333,0,0,0.26458333,0,-338.00002)" />
    <path
       style="fill:#000000;fill-opacity:1;stroke:#000000;stroke-width:40.40610123;stroke-miterlimit:4;stroke-dasharray:none;stroke-opacity:0"
       d="M 964.61187,966.62198 C 1067.9326,863.28337 1152.9296,778.7336 1153.4941,778.7336 c 0.5645,0 1.0264,84.54977 1.0264,187.88838 V 1154.5103 H 965.63831 776.75608 Z"
       id="path1038"
       inkscape:connector-curvature="0"
       transform="matrix(0.26458333,0,0,0.26458333,0,-338.00002)" />
    <path
       style="fill:#000000;fill-opacity:1;stroke:#000000;stroke-width:40.40610123;stroke-miterlimit:4;stroke-dasharray:none;stroke-opacity:0"
       d="M 685.80977,893.89099 V 685.79957 H 894.89663 1103.9835 L 895.9215,893.89099 C 781.4874,1008.3413 687.39831,1101.9824 686.83463,1101.9824 c -0.56367,0 -1.02486,-93.6411 -1.02486,-208.09141 z"
       id="path1040"
       inkscape:connector-curvature="0"
       transform="matrix(0.26458333,0,0,0.26458333,0,-338.00002)" />
    <path
       style="fill:#000000;fill-opacity:1;stroke:#000000;stroke-width:40.40610123;stroke-miterlimit:4;stroke-dasharray:none;stroke-opacity:0"
       d="M 1502.013,893.89099 1293.951,685.79957 h 209.0869 209.0869 v 208.09142 c 0,114.45031 -0.4612,208.09141 -1.0249,208.09141 -0.5637,0 -94.6528,-93.6411 -209.0869,-208.09141 z"
       id="path1042"
       inkscape:connector-curvature="0"
       transform="matrix(0.26458333,0,0,0.26458333,0,-338.00002)" />
    <path
       style="fill:#000000;fill-opacity:1;stroke:#000000;stroke-width:40.40610123;stroke-miterlimit:4;stroke-dasharray:none;stroke-opacity:0"
       d="m 1504.0333,1506.0434 c 113.3228,-113.3391 206.5027,-206.0711 207.0664,-206.0711 0.5638,0 1.0251,92.732 1.0251,206.0711 v 206.0712 h -207.0665 -207.0664 z"
       id="path1044"
       inkscape:connector-curvature="0"
       transform="matrix(0.26458333,0,0,0.26458333,0,-338.00002)" />
    <path
       style="fill:#000000;fill-opacity:1;stroke:#000000;stroke-width:40.40610123;stroke-miterlimit:4;stroke-dasharray:none;stroke-opacity:0"
       d="m 685.80977,1503.0277 v -209.0869 l 208.09142,208.062 c 114.45031,114.4341 208.09141,208.5232 208.09141,209.0869 0,0.5637 -93.6411,1.0249 -208.09141,1.0249 H 685.80977 Z"
       id="path1046"
       inkscape:connector-curvature="0"
       transform="matrix(0.26458333,0,0,0.26458333,0,-338.00002)" />
    <path
       style="fill:none;stroke:#000000;stroke-width:0.26458332px;stroke-linecap:butt;stroke-linejoin:miter;stroke-opacity:1"
       d="M 0,-338.00002 H 634.99999 V 296.99997 H 0 Z"
       id="path1050"
       inkscape:connector-curvature="0" />
    <path
       style="fill:#000000;fill-opacity:0;stroke:#000000;stroke-width:40.40610123;stroke-miterlimit:4;stroke-dasharray:none;stroke-opacity:0"
       d="M 1.1066958,527.9502 0.50128271,3.6810271 514.66893,4.0244673 C 1024.5907,4.3650709 1028.4988,4.4285941 987.92794,11.717004 618.04652,78.164956 297.10264,315.58363 126.95558,648.62245 82.435996,735.76326 53.016257,812.77733 31.284682,899.06671 21.903458,936.31665 6.8150125,1012.2463 3.259562,1040.0975 2.4084628,1046.7645 1.4396728,816.29824 1.1066958,527.9502 Z"
       id="path1052"
       inkscape:connector-curvature="0"
       transform="matrix(0.26458333,0,0,0.26458333,0,-338.00002)" />
    <path
       style="fill:#000000;fill-opacity:0.96984923;stroke:#000000;stroke-width:40.40610123;stroke-miterlimit:4;stroke-dasharray:none;stroke-opacity:0"
       d="M 380.50432,1887.8861 C 240.55324,1728.9623 148.92398,1501.5965 132.9738,1273.6722 114.36312,1007.73 194.17197,748.40856 359.6208,537.23231 c 14.71732,-18.78494 28.94247,-36.96769 31.61145,-40.4061 4.13321,-5.32475 19.26016,8.12175 102.02541,90.69142 l 97.17271,96.94307 v 517.2685 517.2685 l -77.78175,76.7998 c -42.77996,42.2399 -86.15685,84.619 -96.3931,94.1759 l -18.61135,17.3761 z"
       id="path1054"
       inkscape:connector-curvature="0"
       transform="matrix(0.26458333,0,0,0.26458333,0,-338.00002)" />
    <path
       style="fill:#000000;fill-opacity:0.96984923;stroke:#000000;stroke-width:40.40610123;stroke-miterlimit:4;stroke-dasharray:none;stroke-opacity:0"
       d="M 2.8478877,519.86898 2.5215878,3.6810271 514.66893,4.0111652 1026.8163,4.3413032 978.32895,13.657648 C 480.22224,109.36377 98.33585,495.90788 10.753854,993.03384 l -7.579666,43.02306 z"
       id="path1056"
       inkscape:connector-curvature="0"
       transform="matrix(0.26458333,0,0,0.26458333,0,-338.00002)" />
    <path
       style="fill:#000000;fill-opacity:0.96984923;stroke:#000000;stroke-width:40.40610123;stroke-miterlimit:4;stroke-dasharray:none;stroke-opacity:0"
       d="M 2391.5608,1010.2321 C 2363.2001,815.64932 2273.2904,611.35502 2144.1883,448.14815 2106.3729,400.34312 2007.9881,300.63448 1962.2175,263.72892 1802.4585,134.91248 1616.7491,49.676327 1413.036,11.667823 1374.9061,4.5535888 1382.2085,4.4362648 1886.4561,4.0615811 l 512.1473,-0.380554 V 522.89943 c 0,285.57013 -0.5389,519.21837 -1.1976,519.21837 -0.6586,0 -3.2889,-14.3486 -5.845,-31.8857 z"
       id="path1058"
       inkscape:connector-curvature="0"
       transform="matrix(0.26458333,0,0,0.26458333,0,-338.00002)" />
    <path
       style="fill:#000000;fill-opacity:0.96984923;stroke:#000000;stroke-width:40.40610123;stroke-miterlimit:4;stroke-dasharray:none;stroke-opacity:0"
       d="m 1424.8164,2385.8249 c 239.88,-45.6986 454.9177,-159.771 628.4641,-333.3854 173.9575,-174.0255 286.8192,-388.1461 333.4002,-632.5246 l 9.2421,-48.4873 0.3302,512.1473 0.3301,512.1474 -510.127,-0.3302 -510.1271,-0.3301 z"
       id="path1060"
       inkscape:connector-curvature="0"
       transform="matrix(0.26458333,0,0,0.26458333,0,-338.00002)" />
    <path
       style="fill:#000000;fill-opacity:0.96984923;stroke:#000000;stroke-width:40.40610123;stroke-miterlimit:4;stroke-dasharray:none;stroke-opacity:0"
       d="m 0.82758259,1873.4734 0.32630031,-522.2489 7.7339206,44.4467 C 52.252145,1644.8854 163.0389,1864.0079 335.46364,2041.598 c 180.32668,185.7287 421.34895,310.428 679.23076,351.4181 5.5559,0.8831 -220.36474,1.8533 -502.04578,2.1559 l -512.14733729,0.5503 z"
       id="path1062"
       inkscape:connector-curvature="0"
       transform="matrix(0.26458333,0,0,0.26458333,0,-338.00002)" />
  </g>
</svg>
